<mxfile host="app.diagrams.net" agent="Mozilla/5.0 (Windows NT 10.0; Win64; x64) AppleWebKit/537.36 (KHTML, like Gecko) Chrome/138.0.0.0 Safari/537.36" version="28.0.6">
  <diagram name="Zero Trust Network Isolation" id="zero-trust">
    <mxGraphModel dx="1640" dy="1002" grid="1" gridSize="10" guides="1" tooltips="1" connect="1" arrows="1" fold="1" page="1" pageScale="1" pageWidth="1400" pageHeight="900" math="0" shadow="0">
      <root>
        <mxCell id="0" />
        <mxCell id="1" parent="0" />
        <mxCell id="title" value="Zero Trust Network Isolation Model" style="text;html=1;strokeColor=none;fillColor=none;align=center;verticalAlign=middle;whiteSpace=wrap;rounded=0;fontSize=20;fontStyle=1;fontColor=#232F3E;" parent="1" vertex="1">
          <mxGeometry x="400" y="20" width="600" height="40" as="geometry" />
        </mxCell>
        <mxCell id="vpc-brown" value="VPC-Brown (Public Tier)&#xa;10.0.0.0/16" style="rounded=1;whiteSpace=wrap;html=1;fillColor=#E8F5E8;strokeColor=#4CAF50;fontSize=16;fontStyle=1;verticalAlign=top;spacingTop=15;" parent="1" vertex="1">
          <mxGeometry x="50" y="100" width="400" height="340" as="geometry" />
        </mxCell>
        <mxCell id="brown-rules" value="Brown Security Group Rules:&#xa;✓ Inbound: 443 from Internet&#xa;✓ Outbound: 443 to S3 only&#xa;✓ Outbound: 443 to EventBridge only&#xa;✗ NO direct to Bayko VPC" style="rounded=1;whiteSpace=wrap;html=1;fillColor=#FFEBEE;strokeColor=#F44336;fontSize=10;fontStyle=0;align=left;verticalAlign=top;spacingTop=10;spacingLeft=10;" parent="1" vertex="1">
          <mxGeometry x="85" y="330" width="330" height="80" as="geometry" />
        </mxCell>
        <mxCell id="s3-bridge" value="S3 Communication Bridge" style="sketch=0;outlineConnect=0;fontColor=#232F3E;gradientColor=none;fillColor=#3F48CC;strokeColor=none;dashed=0;verticalLabelPosition=bottom;verticalAlign=top;align=center;html=1;fontSize=12;fontStyle=1;aspect=fixed;pointerEvents=1;shape=mxgraph.aws4.s3;" parent="1" vertex="1">
          <mxGeometry x="600" y="120" width="80" height="80" as="geometry" />
        </mxCell>
        <mxCell id="eventbridge" value="EventBridge" style="sketch=0;outlineConnect=0;fontColor=#232F3E;gradientColor=none;fillColor=#FF9900;strokeColor=none;dashed=0;verticalLabelPosition=bottom;verticalAlign=top;align=center;html=1;fontSize=12;fontStyle=1;aspect=fixed;pointerEvents=1;shape=mxgraph.aws4.eventbridge;" parent="1" vertex="1">
          <mxGeometry x="600" y="320" width="80" height="80" as="geometry" />
        </mxCell>
        <mxCell id="vpc-bayko" value="VPC-Bayko (Private Tier)&#xa;10.1.0.0/16" style="rounded=1;whiteSpace=wrap;html=1;fillColor=#FFEBEE;strokeColor=#F44336;fontSize=16;fontStyle=1;verticalAlign=top;spacingTop=15;" parent="1" vertex="1">
          <mxGeometry x="950" y="100" width="400" height="400" as="geometry" />
        </mxCell>
        <mxCell id="private-subnet-bayko" value="Private Subnet&#xa;10.1.1.0/24" style="rounded=1;whiteSpace=wrap;html=1;fillColor=#F3E5F5;strokeColor=#9C27B0;fontSize=12;fontStyle=1;verticalAlign=top;spacingTop=10;" parent="1" vertex="1">
          <mxGeometry x="980" y="170" width="150" height="140" as="geometry" />
        </mxCell>
        <mxCell id="agent-bayko" value="Agent Bayko" style="sketch=0;outlineConnect=0;fontColor=#232F3E;gradientColor=none;fillColor=#ED7100;strokeColor=none;dashed=0;verticalLabelPosition=bottom;verticalAlign=top;align=center;html=1;fontSize=10;fontStyle=0;aspect=fixed;pointerEvents=1;shape=mxgraph.aws4.ecs_container;" parent="1" vertex="1">
          <mxGeometry x="1030" y="240" width="50" height="50" as="geometry" />
        </mxCell>
        <mxCell id="nat-subnet" value="NAT Subnet&#xa;10.1.2.0/24" style="rounded=1;whiteSpace=wrap;html=1;fillColor=#E1F5FE;strokeColor=#03A9F4;fontSize=12;fontStyle=1;verticalAlign=top;spacingTop=10;" parent="1" vertex="1">
          <mxGeometry x="1170" y="170" width="150" height="140" as="geometry" />
        </mxCell>
        <mxCell id="nat-gateway" value="NAT Gateway" style="sketch=0;outlineConnect=0;fontColor=#232F3E;gradientColor=none;fillColor=#8C4FFF;strokeColor=none;dashed=0;verticalLabelPosition=bottom;verticalAlign=top;align=center;html=1;fontSize=10;fontStyle=0;aspect=fixed;pointerEvents=1;shape=mxgraph.aws4.nat_gateway;" parent="1" vertex="1">
          <mxGeometry x="1220" y="225" width="50" height="50" as="geometry" />
        </mxCell>
        <mxCell id="bayko-rules" value="Bayko Security Group Rules:&#xa;✗ NO inbound traffic allowed&#xa;✓ Inbound: EventBridge triggers only&#xa;✓ Outbound: 443 via NAT Gateway only&#xa;✓ Outbound: S3 via PrivateLink only&#xa;✗ NO direct communication with Brown" style="rounded=1;whiteSpace=wrap;html=1;fillColor=#FFEBEE;strokeColor=#F44336;fontSize=10;fontStyle=0;align=left;verticalAlign=top;spacingTop=10;spacingLeft=10;" parent="1" vertex="1">
          <mxGeometry x="980" y="340" width="330" height="100" as="geometry" />
        </mxCell>
        <mxCell id="zero-trust-label-1" value="🚫 NO INBOUND TO BAYKO" style="text;html=1;strokeColor=#F44336;fillColor=#FFEBEE;align=center;verticalAlign=middle;whiteSpace=wrap;rounded=1;fontSize=14;fontStyle=1;fontColor=#F44336;" parent="1" vertex="1">
          <mxGeometry x="990" y="450" width="200" height="40" as="geometry" />
        </mxCell>
        <mxCell id="zero-trust-label-2" value="🚫 NO DIRECT AGENT-AGENT TRAFFIC" style="text;html=1;strokeColor=#F44336;fillColor=#FFEBEE;align=center;verticalAlign=middle;whiteSpace=wrap;rounded=1;fontSize=14;fontStyle=1;fontColor=#F44336;" parent="1" vertex="1">
          <mxGeometry x="500" y="450" width="300" height="40" as="geometry" />
        </mxCell>
        <mxCell id="zero-trust-label-3" value="🔐 IAM-CONTROLLED ACCESS" style="text;html=1;strokeColor=#4CAF50;fillColor=#E8F5E8;align=center;verticalAlign=middle;whiteSpace=wrap;rounded=1;fontSize=14;fontStyle=1;fontColor=#4CAF50;" parent="1" vertex="1">
          <mxGeometry x="550" y="500" width="200" height="40" as="geometry" />
        </mxCell>
        <mxCell id="flow-arrow" value="ONLY SECURE COMMUNICATION PATH" style="endArrow=classic;html=1;rounded=0;strokeColor=#FF6B35;strokeWidth=4;labelBackgroundColor=#ffffff;fontSize=12;fontStyle=1;" parent="1" edge="1">
          <mxGeometry width="50" height="50" relative="1" as="geometry">
            <mxPoint x="450" y="240" as="sourcePoint" />
            <mxPoint x="950" y="240" as="targetPoint" />
          </mxGeometry>
        </mxCell>
        <mxCell id="step1" value="1. Brown writes to S3" style="endArrow=classic;html=1;rounded=0;strokeColor=#3F48CC;strokeWidth=2;labelBackgroundColor=#ffffff;exitX=1;exitY=0.5;exitDx=0;exitDy=0;" parent="1" edge="1" target="s3-bridge" source="private-subnet-brown">
          <mxGeometry x="-0.0035" width="50" height="50" relative="1" as="geometry">
            <mxPoint x="360" y="200" as="sourcePoint" />
            <mxPoint x="600" y="220" as="targetPoint" />
            <mxPoint as="offset" />
          </mxGeometry>
        </mxCell>
        <mxCell id="step2" value="2. S3 triggers EventBridge" style="endArrow=classic;html=1;rounded=0;strokeColor=#FF9900;strokeWidth=2;labelBackgroundColor=#ffffff;" parent="1" edge="1" target="eventbridge" source="s3-bridge">
          <mxGeometry width="50" height="50" relative="1" as="geometry">
            <mxPoint x="640" y="280" as="sourcePoint" />
            <mxPoint x="640" y="320" as="targetPoint" />
          </mxGeometry>
        </mxCell>
        <mxCell id="step3" value="3. EventBridge triggers Bayko" style="endArrow=classic;html=1;rounded=0;strokeColor=#ED7100;strokeWidth=2;labelBackgroundColor=#ffffff;entryX=0;entryY=0.5;entryDx=0;entryDy=0;" parent="1" edge="1" target="private-subnet-bayko">
          <mxGeometry width="50" height="50" relative="1" as="geometry">
            <mxPoint x="680" y="340" as="sourcePoint" />
            <mxPoint x="980" y="200" as="targetPoint" />
          </mxGeometry>
        </mxCell>
        <mxCell id="nat-outbound" value="Outbound Only" style="endArrow=classic;html=1;rounded=0;strokeColor=#8C4FFF;strokeWidth=2;labelBackgroundColor=#ffffff;exitX=1;exitY=0.5;exitDx=0;exitDy=0;entryX=0;entryY=0.47;entryDx=0;entryDy=0;entryPerimeter=0;" parent="1" edge="1" target="internet" source="nat-subnet">
          <mxGeometry x="-1" y="18" width="50" height="50" relative="1" as="geometry">
            <mxPoint x="1260" y="195" as="sourcePoint" />
            <mxPoint x="1320" y="195" as="targetPoint" />
            <mxPoint x="-10" y="3" as="offset" />
          </mxGeometry>
        </mxCell>
        <mxCell id="internet" value="Internet" style="outlineConnect=0;dashed=0;verticalLabelPosition=bottom;verticalAlign=top;align=center;html=1;shape=mxgraph.aws3.internet;fillColor=#D2D3D3;gradientColor=none;" parent="1" vertex="1">
          <mxGeometry x="1340" y="220" width="60" height="40" as="geometry" />
        </mxCell>
        <mxCell id="principles" value="&lt;div style=&quot;text-align: center;&quot;&gt;&lt;b style=&quot;font-size: 14px; background-color: transparent; color: light-dark(rgb(0, 0, 0), rgb(255, 255, 255));&quot;&gt;Zero Trust Principles:&lt;/b&gt;&lt;/div&gt;&lt;div style=&quot;text-align: center;&quot;&gt;&lt;br&gt;&lt;/div&gt;🔒 Network Segmentation&lt;br&gt;   • Complete VPC isolation&lt;br&gt;   • No cross-VPC routing&lt;br&gt;&lt;br&gt;🚫 Deny by Default&lt;br&gt;   • All inbound blocked to Bayko&lt;br&gt;   • Explicit allow rules only&lt;br&gt;&lt;br&gt;🔐 Least Privilege&lt;br&gt;   • IAM role-based access&lt;br&gt;   • Minimal required permissions&lt;br&gt;&lt;br&gt;📊 Continuous Monitoring&lt;br&gt;   • All traffic logged&lt;br&gt;   • Security group auditing" style="rounded=1;whiteSpace=wrap;html=1;fillColor=#FFF8E1;strokeColor=#FFC107;fontSize=11;fontStyle=0;align=left;verticalAlign=top;spacingTop=10;spacingLeft=10;" parent="1" vertex="1">
          <mxGeometry x="350" y="500" width="190" height="250" as="geometry" />
        </mxCell>
        <mxCell id="benefits" value="&lt;div style=&quot;text-align: center;&quot;&gt;&lt;b style=&quot;background-color: transparent; color: light-dark(rgb(0, 0, 0), rgb(255, 255, 255));&quot;&gt;&lt;font style=&quot;font-size: 14px;&quot;&gt;Security Benefits:&lt;/font&gt;&lt;/b&gt;&lt;/div&gt;&lt;div style=&quot;text-align: center;&quot;&gt;&lt;br&gt;&lt;/div&gt;✅ Agent Isolation&lt;br&gt;   • No direct agent communication&lt;br&gt;   • Breach containment&lt;br&gt;&lt;br&gt;✅ Attack Surface Reduction&lt;br&gt;   • Minimal network exposure&lt;br&gt;   • Controlled entry points&lt;br&gt;&lt;br&gt;✅ Audit Trail&lt;br&gt;   • All interactions logged&lt;br&gt;   • Compliance ready&lt;br&gt;&lt;br&gt;✅ Scalable Security&lt;br&gt;   • Policy-driven access&lt;br&gt;   • Automated enforcement" style="rounded=1;whiteSpace=wrap;html=1;fillColor=#E8F5E8;strokeColor=#4CAF50;fontSize=11;fontStyle=0;align=left;verticalAlign=top;spacingTop=10;spacingLeft=10;" parent="1" vertex="1">
          <mxGeometry x="760" y="500" width="200" height="250" as="geometry" />
        </mxCell>
        <mxCell id="J92zrxjmoEokMA-SK9u0-2" value="" style="group" vertex="1" connectable="0" parent="1">
          <mxGeometry x="260" y="180" width="150" height="120" as="geometry" />
        </mxCell>
        <mxCell id="private-subnet-brown" value="Private Subnet&#xa;10.0.2.0/24" style="rounded=1;whiteSpace=wrap;html=1;fillColor=#F3E5F5;strokeColor=#9C27B0;fontSize=12;fontStyle=1;verticalAlign=top;spacingTop=10;" parent="J92zrxjmoEokMA-SK9u0-2" vertex="1">
          <mxGeometry width="150" height="120" as="geometry" />
        </mxCell>
        <mxCell id="agent-brown" value="Agent Brown" style="sketch=0;outlineConnect=0;fontColor=#232F3E;gradientColor=none;fillColor=#FF9900;strokeColor=none;dashed=0;verticalLabelPosition=bottom;verticalAlign=top;align=center;html=1;fontSize=10;fontStyle=0;aspect=fixed;pointerEvents=1;shape=mxgraph.aws4.lambda;" parent="J92zrxjmoEokMA-SK9u0-2" vertex="1">
          <mxGeometry x="50" y="50" width="50" height="50" as="geometry" />
        </mxCell>
        <mxCell id="J92zrxjmoEokMA-SK9u0-3" value="" style="group" vertex="1" connectable="0" parent="1">
          <mxGeometry x="80" y="180" width="150" height="120" as="geometry" />
        </mxCell>
        <mxCell id="public-subnet" value="Public Subnet&#xa;10.0.1.0/24" style="rounded=1;whiteSpace=wrap;html=1;fillColor=#E1F5FE;strokeColor=#03A9F4;fontSize=12;fontStyle=1;verticalAlign=top;spacingTop=10;" parent="J92zrxjmoEokMA-SK9u0-3" vertex="1">
          <mxGeometry width="150" height="120" as="geometry" />
        </mxCell>
        <mxCell id="alb" value="ALB" style="sketch=0;outlineConnect=0;fontColor=#232F3E;gradientColor=none;fillColor=#8C4FFF;strokeColor=none;dashed=0;verticalLabelPosition=bottom;verticalAlign=top;align=center;html=1;fontSize=10;fontStyle=0;aspect=fixed;pointerEvents=1;shape=mxgraph.aws4.application_load_balancer;" parent="J92zrxjmoEokMA-SK9u0-3" vertex="1">
          <mxGeometry x="50" y="50" width="50" height="50" as="geometry" />
        </mxCell>
        <mxCell id="s3-privatelink" value="S3 PrivateLink" style="sketch=0;outlineConnect=0;fontColor=#232F3E;gradientColor=none;fillColor=#3F48CC;strokeColor=none;dashed=0;verticalLabelPosition=bottom;verticalAlign=top;align=center;html=1;fontSize=10;fontStyle=0;aspect=fixed;pointerEvents=1;shape=mxgraph.aws4.vpc_endpoint;" parent="1" vertex="1">
          <mxGeometry x="1125" y="160" width="40" height="40" as="geometry" />
        </mxCell>
        <mxCell id="privatelink-connection" value="Private Access" style="endArrow=classic;html=1;rounded=0;strokeColor=#3F48CC;strokeWidth=2;dashed=1;labelBackgroundColor=#ffffff;exitX=0;exitY=0.25;exitDx=0;exitDy=0;" parent="1" edge="1" target="s3-bridge" source="s3-privatelink">
          <mxGeometry width="50" height="50" relative="1" as="geometry">
            <mxPoint x="1080" y="190" as="sourcePoint" />
            <mxPoint x="680" y="230" as="targetPoint" />
          </mxGeometry>
        </mxCell>
      </root>
    </mxGraphModel>
  </diagram>
</mxfile>
